HIERARCHY
ROOT Hips
{
	OFFSET 0.00000 0.00000 0.00000
	CHANNELS 6 Xposition Yposition Zposition Zrotation Yrotation Xrotation 
	JOINT LHipJoint
	{
		OFFSET 0 0 0
		CHANNELS 3 Zrotation Yrotation Xrotation
		JOINT LeftHip
		{
			OFFSET 1.26600 -1.82114 0.91038
			CHANNELS 3 Zrotation Yrotation Xrotation
			JOINT LeftKnee
			{
				OFFSET 2.50076 -6.87080 0.00000
				CHANNELS 3 Zrotation Yrotation Xrotation
				JOINT LeftAnkle
				{
					OFFSET 2.57364 -7.07102 0.00000
					CHANNELS 3 Zrotation Yrotation Xrotation
					JOINT LeftToe
					{
						OFFSET 0.13572 -0.37290 1.97004
						CHANNELS 3 Zrotation Yrotation Xrotation
						End Site
						{
							OFFSET 0.00000 -0.00000 1.01383
						}
					}
				}
			}
		}
	}
	JOINT RHipJoint
	{
		OFFSET 0 0 0
		CHANNELS 3 Zrotation Yrotation Xrotation
		JOINT RightHip
		{
			OFFSET -1.20803 -1.82114 0.91038
			CHANNELS 3 Zrotation Yrotation Xrotation
			JOINT RightKnee
			{
				OFFSET -2.54916 -7.00377 0.00000
				CHANNELS 3 Zrotation Yrotation Xrotation
				JOINT RightAnkle
				{
					OFFSET -2.56374 -7.04382 0.00000
					CHANNELS 3 Zrotation Yrotation Xrotation
					JOINT RightToe
					{
						OFFSET -0.23520 -0.64621 2.09921
						CHANNELS 3 Zrotation Yrotation Xrotation
						End Site
						{
							OFFSET -0.00000 -0.00000 1.10065
						}
					}
				}
			}
		}
	}
	JOINT lowerback
	{
		OFFSET 0 0 0
		CHANNELS 3 Zrotation Yrotation Xrotation
		JOINT Chest
		{
			OFFSET 0.05492 2.10797 -0.12074
			CHANNELS 3 Zrotation Yrotation Xrotation
			JOINT Chest2
			{
				OFFSET 0.04577 2.11592 -0.04483
				CHANNELS 3 Zrotation Yrotation Xrotation
				JOINT lowerneck
				{
					OFFSET 0 0 0
					CHANNELS 3 Zrotation Yrotation Xrotation
					JOINT Neck
					{
						OFFSET -0.10759 1.80167 0.15770
						CHANNELS 3 Zrotation Yrotation Xrotation
						JOINT Head
						{
							OFFSET 0.09237 1.77509 -0.40848
							CHANNELS 3 Zrotation Yrotation Xrotation
							End Site
							{
								OFFSET 0.03805 1.84093 -0.15754
							}
						}
					}
				}
				JOINT LeftCollar
				{
					OFFSET 0 0 0
					CHANNELS 3 Zrotation Yrotation Xrotation
					JOINT LeftShoulder
					{
						OFFSET 3.42372 1.09575 -0.28209
CHANNELS 3 Zrotation Xrotation Yrotation
						JOINT LeftElbow
						{
OFFSET 0 -4.956810 0.000000
CHANNELS 3 Zrotation Xrotation Yrotation
							JOINT LeftWrist
							{
OFFSET 0 -3.409150 0.000000
CHANNELS 3 Zrotation Xrotation Yrotation
								JOINT lhand
								{
									OFFSET 0 0 0
CHANNELS 3 Zrotation Xrotation Yrotation
									JOINT LFingers
									{
OFFSET 0 -0.616400 0.000000
CHANNELS 3 Zrotation Xrotation Yrotation
										End Site
										{
OFFSET 0 -0.496960 0.000000
										}
									}
								}
								JOINT LThumb
								{
OFFSET 0 0.000000 0.000000
CHANNELS 3 Zrotation Xrotation Yrotation
									End Site
									{
OFFSET 0 -0.504550 0.504550
									}
								}
							}
						}
					}
				}
				JOINT RightCollar
				{
					OFFSET 0 0 0
					CHANNELS 3 Zrotation Yrotation Xrotation
					JOINT RightShoulder
					{
						OFFSET -3.24731 1.15872 -0.32221
CHANNELS 3 Zrotation Xrotation Yrotation
						JOINT RightElbow
						{
OFFSET 0 -5.352000 0.000000
CHANNELS 3 Zrotation Xrotation Yrotation
							JOINT RightWrist
							{
OFFSET 0 -3.437210 -0.000000
CHANNELS 3 Zrotation Xrotation Yrotation
								JOINT rhand
								{
									OFFSET 0 0 0
CHANNELS 3 Zrotation Xrotation Yrotation
									JOINT RFingers
									{
OFFSET 0 -0.720090 0.000000
CHANNELS 3 Zrotation Xrotation Yrotation
										End Site
										{
OFFSET 0 -0.580560 0.000000
										}
									}
								}
								JOINT RThumb
								{
OFFSET 0 0.000000 0.000000
CHANNELS 3 Zrotation Xrotation Yrotation
									End Site
									{
OFFSET 0 -0.589420 0.589420
									}
								}
							}
						}
					}
				}
			}
		}
	}
}
MOTION
Frames: 4
Frame Time: 0.008333333333333333
-6.907900 17.246300 -21.087100 -42.038400 77.483400 -38.632900 0.000000 0.000000 0.000000 -10.145100 -3.562900 -26.971200 1.621100 8.027700 22.798300 -0.101500 -5.800200 3.562300 2.158200 9.188100 26.385600 0.000000 0.000000 0.000000 25.522700 -5.668800 10.425700 -2.382000 -9.620100 27.755000 -0.116800 5.358200 10.534500 -0.084300 -1.873200 5.155300 6.142600 2.927900 2.165400 2.573200 3.995700 3.152500 -0.772800 2.137500 2.274900 -7.184600 -0.580400 -13.519000 0.223000 3.221800 38.841100 2.093900 0.886300 16.046200 0.000000 0.000000 0.000000 1.552000 7.509300 -17.666400 16.216200 -25.813000 3.739600 16.034300 6.114000 -20.592600 0.000000 0.000000 0.000000 -7.125000 0.000000 0.000000 -12.556800 50.906300 1.852300 0.000000 0.000000 0.000000 -1.810800 2.344000 16.403800 -14.369900 -23.261000 -2.972600 -21.583700 -14.164900 -11.550900 0.000000 0.000000 0.000000 7.125000 0.000000 -0.000000 3.894600 17.601400 2.540500
-6.025628 17.384932 -21.211194 -30.738130 78.737575 -28.286587 0.000000 0.000000 0.000000 -14.941795 -3.397210 -22.054984 1.428185 7.556748 21.375732 -0.075116 -4.904173 2.515102 2.026949 8.920902 25.548982 0.000000 0.000000 0.000000 21.759425 -3.558603 3.581559 -5.454153 -13.875617 42.745523 -1.094280 -1.916161 19.229522 -0.870760 -5.906299 16.524252 4.119545 2.793157 2.721463 1.839210 3.822619 3.198572 -0.443758 2.003225 1.908739 -7.850331 -0.416133 -13.621897 0.332784 3.702130 39.125181 2.351320 0.999411 16.190781 0.000000 0.000000 0.000000 2.176310 7.612169 -17.852908 16.670804 -26.421773 3.939731 15.970396 5.555315 -21.021451 0.000000 0.000000 0.000000 -7.125000 0.000000 0.000000 -12.785283 51.323290 2.019200 0.000000 0.000000 0.000000 -2.652201 2.901986 17.582376 -14.956460 -24.085397 -3.208183 -20.730459 -14.139386 -11.603165 0.000000 0.000000 0.000000 7.125000 0.000000 0.000000 4.493538 17.620667 2.931573
-5.279623 17.500259 -21.288559 -28.629090 78.779758 -27.101012 0.000000 0.000000 0.000000 -16.338456 -3.586748 -17.749208 1.393371 7.467916 21.109175 -0.065432 -4.878769 -0.151826 1.263094 7.124153 20.083755 0.000000 0.000000 0.000000 21.278252 -1.007615 -3.531498 -8.813780 -16.684949 55.441585 -0.760723 -8.864701 15.816919 -0.234290 -3.064191 8.461097 3.482125 2.355201 3.263004 2.393132 3.258671 3.480836 0.461082 1.710154 1.804944 -8.233625 0.001375 -13.011406 -0.823854 4.818114 38.663143 2.076710 1.282307 15.808035 0.000000 0.000000 0.000000 1.364925 6.728187 -16.382383 17.473686 -27.477948 4.303625 17.809330 5.537932 -20.904423 0.000000 0.000000 0.000000 -7.125000 0.000000 0.000000 -10.946195 51.513758 1.775352 0.000000 0.000000 0.000000 -3.905840 2.004328 17.097413 -15.782090 -25.224275 -3.552605 -21.146405 -15.501690 -12.170958 0.000000 0.000000 0.000000 7.125000 0.000000 0.000000 4.221059 16.981150 2.811475
-4.610321 17.556804 -21.311444 -24.009548 80.717935 -23.253693 0.000000 0.000000 0.000000 -19.002551 -3.193088 -13.786672 1.235468 7.048607 19.859481 -0.075752 -5.931343 -1.434111 1.276439 7.160036 20.190478 0.000000 0.000000 0.000000 19.702911 -0.051459 -10.070633 -11.008502 -17.939000 62.808904 -0.075355 -3.062579 4.972683 -0.258069 -3.238711 8.946555 1.911413 1.987414 3.288322 1.961692 2.734941 3.634851 0.901506 1.418135 1.883744 -7.914211 -0.024861 -13.137035 -0.741407 4.878612 39.725959 2.104799 1.346788 16.395615 0.000000 0.000000 0.000000 2.760682 5.576166 -17.949036 19.144526 -29.597500 5.102180 18.412854 2.860061 -21.711692 0.000000 0.000000 0.000000 -7.125000 0.000000 0.000000 -10.655279 52.434911 1.968712 0.000000 0.000000 0.000000 -3.650848 0.869897 15.860904 -16.907769 -26.735817 -4.045882 -21.291387 -17.323026 -12.059048 0.000000 0.000000 0.000000 7.125000 0.000000 0.000000 4.116047 17.086907 2.732040
